<mxfile host="app.diagrams.net" agent="Mozilla/5.0 (Macintosh; Intel Mac OS X 10_15_7) AppleWebKit/537.36 (KHTML, like Gecko) Chrome/128.0.0.0 Safari/537.36" version="25.0.3">
  <diagram name="Page-1" id="c85glCetXg5F16J9BWZi">
    <mxGraphModel grid="0" page="1" gridSize="10" guides="1" tooltips="1" connect="1" arrows="1" fold="1" pageScale="1" pageWidth="396" pageHeight="549" math="0" shadow="0">
      <root>
        <mxCell id="0" />
        <mxCell id="1" parent="0" />
        <mxCell id="adXk8Jc9nqMLCtVAsxUO-7" value="products_data" style="shape=table;startSize=30;container=1;collapsible=1;childLayout=tableLayout;fixedRows=1;rowLines=0;fontStyle=1;align=center;resizeLast=1;html=1;fontSize=9;" vertex="1" parent="1">
          <mxGeometry x="35" y="338" width="132" height="140" as="geometry" />
        </mxCell>
        <mxCell id="adXk8Jc9nqMLCtVAsxUO-8" value="" style="shape=tableRow;horizontal=0;startSize=0;swimlaneHead=0;swimlaneBody=0;fillColor=none;collapsible=0;dropTarget=0;points=[[0,0.5],[1,0.5]];portConstraint=eastwest;top=0;left=0;right=0;bottom=1;" vertex="1" parent="adXk8Jc9nqMLCtVAsxUO-7">
          <mxGeometry y="30" width="132" height="30" as="geometry" />
        </mxCell>
        <mxCell id="adXk8Jc9nqMLCtVAsxUO-9" value="PK" style="shape=partialRectangle;connectable=0;fillColor=none;top=0;left=0;bottom=0;right=0;fontStyle=1;overflow=hidden;whiteSpace=wrap;html=1;fontSize=8;" vertex="1" parent="adXk8Jc9nqMLCtVAsxUO-8">
          <mxGeometry width="29.95001220703125" height="30" as="geometry">
            <mxRectangle width="29.95001220703125" height="30" as="alternateBounds" />
          </mxGeometry>
        </mxCell>
        <mxCell id="adXk8Jc9nqMLCtVAsxUO-10" value="product_id" style="shape=partialRectangle;connectable=0;fillColor=none;top=0;left=0;bottom=0;right=0;align=left;spacingLeft=6;fontStyle=5;overflow=hidden;whiteSpace=wrap;html=1;fontSize=8;" vertex="1" parent="adXk8Jc9nqMLCtVAsxUO-8">
          <mxGeometry x="29.95001220703125" width="102.04998779296875" height="30" as="geometry">
            <mxRectangle width="102.04998779296875" height="30" as="alternateBounds" />
          </mxGeometry>
        </mxCell>
        <mxCell id="adXk8Jc9nqMLCtVAsxUO-11" value="" style="shape=tableRow;horizontal=0;startSize=0;swimlaneHead=0;swimlaneBody=0;fillColor=none;collapsible=0;dropTarget=0;points=[[0,0.5],[1,0.5]];portConstraint=eastwest;top=0;left=0;right=0;bottom=0;" vertex="1" parent="adXk8Jc9nqMLCtVAsxUO-7">
          <mxGeometry y="60" width="132" height="20" as="geometry" />
        </mxCell>
        <mxCell id="adXk8Jc9nqMLCtVAsxUO-12" value="" style="shape=partialRectangle;connectable=0;fillColor=none;top=0;left=0;bottom=0;right=0;editable=1;overflow=hidden;whiteSpace=wrap;html=1;fontSize=8;" vertex="1" parent="adXk8Jc9nqMLCtVAsxUO-11">
          <mxGeometry width="29.95001220703125" height="20" as="geometry">
            <mxRectangle width="29.95001220703125" height="20" as="alternateBounds" />
          </mxGeometry>
        </mxCell>
        <mxCell id="adXk8Jc9nqMLCtVAsxUO-13" value="product_name" style="shape=partialRectangle;connectable=0;fillColor=none;top=0;left=0;bottom=0;right=0;align=left;spacingLeft=6;overflow=hidden;whiteSpace=wrap;html=1;fontSize=8;" vertex="1" parent="adXk8Jc9nqMLCtVAsxUO-11">
          <mxGeometry x="29.95001220703125" width="102.04998779296875" height="20" as="geometry">
            <mxRectangle width="102.04998779296875" height="20" as="alternateBounds" />
          </mxGeometry>
        </mxCell>
        <mxCell id="adXk8Jc9nqMLCtVAsxUO-14" value="" style="shape=tableRow;horizontal=0;startSize=0;swimlaneHead=0;swimlaneBody=0;fillColor=none;collapsible=0;dropTarget=0;points=[[0,0.5],[1,0.5]];portConstraint=eastwest;top=0;left=0;right=0;bottom=0;" vertex="1" parent="adXk8Jc9nqMLCtVAsxUO-7">
          <mxGeometry y="80" width="132" height="20" as="geometry" />
        </mxCell>
        <mxCell id="adXk8Jc9nqMLCtVAsxUO-15" value="" style="shape=partialRectangle;connectable=0;fillColor=none;top=0;left=0;bottom=0;right=0;editable=1;overflow=hidden;whiteSpace=wrap;html=1;fontSize=8;" vertex="1" parent="adXk8Jc9nqMLCtVAsxUO-14">
          <mxGeometry width="29.95001220703125" height="20" as="geometry">
            <mxRectangle width="29.95001220703125" height="20" as="alternateBounds" />
          </mxGeometry>
        </mxCell>
        <mxCell id="adXk8Jc9nqMLCtVAsxUO-16" value="category" style="shape=partialRectangle;connectable=0;fillColor=none;top=0;left=0;bottom=0;right=0;align=left;spacingLeft=6;overflow=hidden;whiteSpace=wrap;html=1;fontSize=8;" vertex="1" parent="adXk8Jc9nqMLCtVAsxUO-14">
          <mxGeometry x="29.95001220703125" width="102.04998779296875" height="20" as="geometry">
            <mxRectangle width="102.04998779296875" height="20" as="alternateBounds" />
          </mxGeometry>
        </mxCell>
        <mxCell id="adXk8Jc9nqMLCtVAsxUO-17" value="" style="shape=tableRow;horizontal=0;startSize=0;swimlaneHead=0;swimlaneBody=0;fillColor=none;collapsible=0;dropTarget=0;points=[[0,0.5],[1,0.5]];portConstraint=eastwest;top=0;left=0;right=0;bottom=0;" vertex="1" parent="adXk8Jc9nqMLCtVAsxUO-7">
          <mxGeometry y="100" width="132" height="20" as="geometry" />
        </mxCell>
        <mxCell id="adXk8Jc9nqMLCtVAsxUO-18" value="" style="shape=partialRectangle;connectable=0;fillColor=none;top=0;left=0;bottom=0;right=0;editable=1;overflow=hidden;whiteSpace=wrap;html=1;fontSize=8;" vertex="1" parent="adXk8Jc9nqMLCtVAsxUO-17">
          <mxGeometry width="29.95001220703125" height="20" as="geometry">
            <mxRectangle width="29.95001220703125" height="20" as="alternateBounds" />
          </mxGeometry>
        </mxCell>
        <mxCell id="adXk8Jc9nqMLCtVAsxUO-19" value="cat_" style="shape=partialRectangle;connectable=0;fillColor=none;top=0;left=0;bottom=0;right=0;align=left;spacingLeft=6;overflow=hidden;whiteSpace=wrap;html=1;fontSize=8;" vertex="1" parent="adXk8Jc9nqMLCtVAsxUO-17">
          <mxGeometry x="29.95001220703125" width="102.04998779296875" height="20" as="geometry">
            <mxRectangle width="102.04998779296875" height="20" as="alternateBounds" />
          </mxGeometry>
        </mxCell>
        <mxCell id="adXk8Jc9nqMLCtVAsxUO-25" value="" style="shape=tableRow;horizontal=0;startSize=0;swimlaneHead=0;swimlaneBody=0;fillColor=none;collapsible=0;dropTarget=0;points=[[0,0.5],[1,0.5]];portConstraint=eastwest;top=0;left=0;right=0;bottom=0;" vertex="1" parent="adXk8Jc9nqMLCtVAsxUO-7">
          <mxGeometry y="120" width="132" height="20" as="geometry" />
        </mxCell>
        <mxCell id="adXk8Jc9nqMLCtVAsxUO-26" value="" style="shape=partialRectangle;connectable=0;fillColor=none;top=0;left=0;bottom=0;right=0;editable=1;overflow=hidden;whiteSpace=wrap;html=1;" vertex="1" parent="adXk8Jc9nqMLCtVAsxUO-25">
          <mxGeometry width="29.95001220703125" height="20" as="geometry">
            <mxRectangle width="29.95001220703125" height="20" as="alternateBounds" />
          </mxGeometry>
        </mxCell>
        <mxCell id="adXk8Jc9nqMLCtVAsxUO-27" value="price" style="shape=partialRectangle;connectable=0;fillColor=none;top=0;left=0;bottom=0;right=0;align=left;spacingLeft=6;overflow=hidden;whiteSpace=wrap;html=1;fontSize=8;" vertex="1" parent="adXk8Jc9nqMLCtVAsxUO-25">
          <mxGeometry x="29.95001220703125" width="102.04998779296875" height="20" as="geometry">
            <mxRectangle width="102.04998779296875" height="20" as="alternateBounds" />
          </mxGeometry>
        </mxCell>
        <mxCell id="adXk8Jc9nqMLCtVAsxUO-45" value="store_sales_data" style="shape=table;startSize=30;container=1;collapsible=1;childLayout=tableLayout;fixedRows=1;rowLines=0;fontStyle=1;align=center;resizeLast=1;html=1;fontSize=9;" vertex="1" parent="1">
          <mxGeometry x="228" y="188" width="132" height="140" as="geometry" />
        </mxCell>
        <mxCell id="adXk8Jc9nqMLCtVAsxUO-46" value="" style="shape=tableRow;horizontal=0;startSize=0;swimlaneHead=0;swimlaneBody=0;fillColor=none;collapsible=0;dropTarget=0;points=[[0,0.5],[1,0.5]];portConstraint=eastwest;top=0;left=0;right=0;bottom=1;" vertex="1" parent="adXk8Jc9nqMLCtVAsxUO-45">
          <mxGeometry y="30" width="132" height="30" as="geometry" />
        </mxCell>
        <mxCell id="adXk8Jc9nqMLCtVAsxUO-47" value="PK" style="shape=partialRectangle;connectable=0;fillColor=none;top=0;left=0;bottom=0;right=0;fontStyle=1;overflow=hidden;whiteSpace=wrap;html=1;fontSize=8;" vertex="1" parent="adXk8Jc9nqMLCtVAsxUO-46">
          <mxGeometry width="29.95001220703125" height="30" as="geometry">
            <mxRectangle width="29.95001220703125" height="30" as="alternateBounds" />
          </mxGeometry>
        </mxCell>
        <mxCell id="adXk8Jc9nqMLCtVAsxUO-48" value="sale_id" style="shape=partialRectangle;connectable=0;fillColor=none;top=0;left=0;bottom=0;right=0;align=left;spacingLeft=6;fontStyle=5;overflow=hidden;whiteSpace=wrap;html=1;fontSize=8;" vertex="1" parent="adXk8Jc9nqMLCtVAsxUO-46">
          <mxGeometry x="29.95001220703125" width="102.04998779296875" height="30" as="geometry">
            <mxRectangle width="102.04998779296875" height="30" as="alternateBounds" />
          </mxGeometry>
        </mxCell>
        <mxCell id="adXk8Jc9nqMLCtVAsxUO-49" value="" style="shape=tableRow;horizontal=0;startSize=0;swimlaneHead=0;swimlaneBody=0;fillColor=none;collapsible=0;dropTarget=0;points=[[0,0.5],[1,0.5]];portConstraint=eastwest;top=0;left=0;right=0;bottom=0;" vertex="1" parent="adXk8Jc9nqMLCtVAsxUO-45">
          <mxGeometry y="60" width="132" height="20" as="geometry" />
        </mxCell>
        <mxCell id="adXk8Jc9nqMLCtVAsxUO-50" value="FK" style="shape=partialRectangle;connectable=0;fillColor=none;top=0;left=0;bottom=0;right=0;editable=1;overflow=hidden;whiteSpace=wrap;html=1;fontSize=8;" vertex="1" parent="adXk8Jc9nqMLCtVAsxUO-49">
          <mxGeometry width="29.95001220703125" height="20" as="geometry">
            <mxRectangle width="29.95001220703125" height="20" as="alternateBounds" />
          </mxGeometry>
        </mxCell>
        <mxCell id="adXk8Jc9nqMLCtVAsxUO-51" value="store_id" style="shape=partialRectangle;connectable=0;fillColor=none;top=0;left=0;bottom=0;right=0;align=left;spacingLeft=6;overflow=hidden;whiteSpace=wrap;html=1;fontSize=8;" vertex="1" parent="adXk8Jc9nqMLCtVAsxUO-49">
          <mxGeometry x="29.95001220703125" width="102.04998779296875" height="20" as="geometry">
            <mxRectangle width="102.04998779296875" height="20" as="alternateBounds" />
          </mxGeometry>
        </mxCell>
        <mxCell id="adXk8Jc9nqMLCtVAsxUO-52" value="" style="shape=tableRow;horizontal=0;startSize=0;swimlaneHead=0;swimlaneBody=0;fillColor=none;collapsible=0;dropTarget=0;points=[[0,0.5],[1,0.5]];portConstraint=eastwest;top=0;left=0;right=0;bottom=0;" vertex="1" parent="adXk8Jc9nqMLCtVAsxUO-45">
          <mxGeometry y="80" width="132" height="20" as="geometry" />
        </mxCell>
        <mxCell id="adXk8Jc9nqMLCtVAsxUO-53" value="FK" style="shape=partialRectangle;connectable=0;fillColor=none;top=0;left=0;bottom=0;right=0;editable=1;overflow=hidden;whiteSpace=wrap;html=1;fontSize=8;" vertex="1" parent="adXk8Jc9nqMLCtVAsxUO-52">
          <mxGeometry width="29.95001220703125" height="20" as="geometry">
            <mxRectangle width="29.95001220703125" height="20" as="alternateBounds" />
          </mxGeometry>
        </mxCell>
        <mxCell id="adXk8Jc9nqMLCtVAsxUO-54" value="product_id" style="shape=partialRectangle;connectable=0;fillColor=none;top=0;left=0;bottom=0;right=0;align=left;spacingLeft=6;overflow=hidden;whiteSpace=wrap;html=1;fontSize=8;" vertex="1" parent="adXk8Jc9nqMLCtVAsxUO-52">
          <mxGeometry x="29.95001220703125" width="102.04998779296875" height="20" as="geometry">
            <mxRectangle width="102.04998779296875" height="20" as="alternateBounds" />
          </mxGeometry>
        </mxCell>
        <mxCell id="adXk8Jc9nqMLCtVAsxUO-55" value="" style="shape=tableRow;horizontal=0;startSize=0;swimlaneHead=0;swimlaneBody=0;fillColor=none;collapsible=0;dropTarget=0;points=[[0,0.5],[1,0.5]];portConstraint=eastwest;top=0;left=0;right=0;bottom=0;" vertex="1" parent="adXk8Jc9nqMLCtVAsxUO-45">
          <mxGeometry y="100" width="132" height="20" as="geometry" />
        </mxCell>
        <mxCell id="adXk8Jc9nqMLCtVAsxUO-56" value="" style="shape=partialRectangle;connectable=0;fillColor=none;top=0;left=0;bottom=0;right=0;editable=1;overflow=hidden;whiteSpace=wrap;html=1;fontSize=8;" vertex="1" parent="adXk8Jc9nqMLCtVAsxUO-55">
          <mxGeometry width="29.95001220703125" height="20" as="geometry">
            <mxRectangle width="29.95001220703125" height="20" as="alternateBounds" />
          </mxGeometry>
        </mxCell>
        <mxCell id="adXk8Jc9nqMLCtVAsxUO-57" value="timestamp" style="shape=partialRectangle;connectable=0;fillColor=none;top=0;left=0;bottom=0;right=0;align=left;spacingLeft=6;overflow=hidden;whiteSpace=wrap;html=1;fontSize=8;" vertex="1" parent="adXk8Jc9nqMLCtVAsxUO-55">
          <mxGeometry x="29.95001220703125" width="102.04998779296875" height="20" as="geometry">
            <mxRectangle width="102.04998779296875" height="20" as="alternateBounds" />
          </mxGeometry>
        </mxCell>
        <mxCell id="adXk8Jc9nqMLCtVAsxUO-58" value="" style="shape=tableRow;horizontal=0;startSize=0;swimlaneHead=0;swimlaneBody=0;fillColor=none;collapsible=0;dropTarget=0;points=[[0,0.5],[1,0.5]];portConstraint=eastwest;top=0;left=0;right=0;bottom=0;" vertex="1" parent="adXk8Jc9nqMLCtVAsxUO-45">
          <mxGeometry y="120" width="132" height="20" as="geometry" />
        </mxCell>
        <mxCell id="adXk8Jc9nqMLCtVAsxUO-59" value="" style="shape=partialRectangle;connectable=0;fillColor=none;top=0;left=0;bottom=0;right=0;editable=1;overflow=hidden;whiteSpace=wrap;html=1;" vertex="1" parent="adXk8Jc9nqMLCtVAsxUO-58">
          <mxGeometry width="29.95001220703125" height="20" as="geometry">
            <mxRectangle width="29.95001220703125" height="20" as="alternateBounds" />
          </mxGeometry>
        </mxCell>
        <mxCell id="adXk8Jc9nqMLCtVAsxUO-60" value="timezone" style="shape=partialRectangle;connectable=0;fillColor=none;top=0;left=0;bottom=0;right=0;align=left;spacingLeft=6;overflow=hidden;whiteSpace=wrap;html=1;fontSize=8;" vertex="1" parent="adXk8Jc9nqMLCtVAsxUO-58">
          <mxGeometry x="29.95001220703125" width="102.04998779296875" height="20" as="geometry">
            <mxRectangle width="102.04998779296875" height="20" as="alternateBounds" />
          </mxGeometry>
        </mxCell>
        <mxCell id="adXk8Jc9nqMLCtVAsxUO-61" value="employees_data" style="shape=table;startSize=30;container=1;collapsible=1;childLayout=tableLayout;fixedRows=1;rowLines=0;fontStyle=1;align=center;resizeLast=1;html=1;fontSize=9;" vertex="1" parent="1">
          <mxGeometry x="35" y="38" width="132" height="117.3499755859375" as="geometry" />
        </mxCell>
        <mxCell id="adXk8Jc9nqMLCtVAsxUO-62" value="" style="shape=tableRow;horizontal=0;startSize=0;swimlaneHead=0;swimlaneBody=0;fillColor=none;collapsible=0;dropTarget=0;points=[[0,0.5],[1,0.5]];portConstraint=eastwest;top=0;left=0;right=0;bottom=1;" vertex="1" parent="adXk8Jc9nqMLCtVAsxUO-61">
          <mxGeometry y="30" width="132" height="27" as="geometry" />
        </mxCell>
        <mxCell id="adXk8Jc9nqMLCtVAsxUO-63" value="PK" style="shape=partialRectangle;connectable=0;fillColor=none;top=0;left=0;bottom=0;right=0;fontStyle=1;overflow=hidden;whiteSpace=wrap;html=1;fontSize=8;" vertex="1" parent="adXk8Jc9nqMLCtVAsxUO-62">
          <mxGeometry width="29.95001220703125" height="27" as="geometry">
            <mxRectangle width="29.95001220703125" height="27" as="alternateBounds" />
          </mxGeometry>
        </mxCell>
        <mxCell id="adXk8Jc9nqMLCtVAsxUO-64" value="employee_id" style="shape=partialRectangle;connectable=0;fillColor=none;top=0;left=0;bottom=0;right=0;align=left;spacingLeft=6;fontStyle=5;overflow=hidden;whiteSpace=wrap;html=1;fontSize=8;" vertex="1" parent="adXk8Jc9nqMLCtVAsxUO-62">
          <mxGeometry x="29.95001220703125" width="102.04998779296875" height="27" as="geometry">
            <mxRectangle width="102.04998779296875" height="27" as="alternateBounds" />
          </mxGeometry>
        </mxCell>
        <mxCell id="adXk8Jc9nqMLCtVAsxUO-65" value="" style="shape=tableRow;horizontal=0;startSize=0;swimlaneHead=0;swimlaneBody=0;fillColor=none;collapsible=0;dropTarget=0;points=[[0,0.5],[1,0.5]];portConstraint=eastwest;top=0;left=0;right=0;bottom=0;" vertex="1" parent="adXk8Jc9nqMLCtVAsxUO-61">
          <mxGeometry y="57" width="132" height="20" as="geometry" />
        </mxCell>
        <mxCell id="adXk8Jc9nqMLCtVAsxUO-66" value="" style="shape=partialRectangle;connectable=0;fillColor=none;top=0;left=0;bottom=0;right=0;editable=1;overflow=hidden;whiteSpace=wrap;html=1;fontSize=8;" vertex="1" parent="adXk8Jc9nqMLCtVAsxUO-65">
          <mxGeometry width="29.95001220703125" height="20" as="geometry">
            <mxRectangle width="29.95001220703125" height="20" as="alternateBounds" />
          </mxGeometry>
        </mxCell>
        <mxCell id="adXk8Jc9nqMLCtVAsxUO-67" value="name" style="shape=partialRectangle;connectable=0;fillColor=none;top=0;left=0;bottom=0;right=0;align=left;spacingLeft=6;overflow=hidden;whiteSpace=wrap;html=1;fontSize=8;" vertex="1" parent="adXk8Jc9nqMLCtVAsxUO-65">
          <mxGeometry x="29.95001220703125" width="102.04998779296875" height="20" as="geometry">
            <mxRectangle width="102.04998779296875" height="20" as="alternateBounds" />
          </mxGeometry>
        </mxCell>
        <mxCell id="adXk8Jc9nqMLCtVAsxUO-68" value="" style="shape=tableRow;horizontal=0;startSize=0;swimlaneHead=0;swimlaneBody=0;fillColor=none;collapsible=0;dropTarget=0;points=[[0,0.5],[1,0.5]];portConstraint=eastwest;top=0;left=0;right=0;bottom=0;" vertex="1" parent="adXk8Jc9nqMLCtVAsxUO-61">
          <mxGeometry y="77" width="132" height="20" as="geometry" />
        </mxCell>
        <mxCell id="adXk8Jc9nqMLCtVAsxUO-69" value="FK" style="shape=partialRectangle;connectable=0;fillColor=none;top=0;left=0;bottom=0;right=0;editable=1;overflow=hidden;whiteSpace=wrap;html=1;fontSize=8;" vertex="1" parent="adXk8Jc9nqMLCtVAsxUO-68">
          <mxGeometry width="29.95001220703125" height="20" as="geometry">
            <mxRectangle width="29.95001220703125" height="20" as="alternateBounds" />
          </mxGeometry>
        </mxCell>
        <mxCell id="adXk8Jc9nqMLCtVAsxUO-70" value="store_id" style="shape=partialRectangle;connectable=0;fillColor=none;top=0;left=0;bottom=0;right=0;align=left;spacingLeft=6;overflow=hidden;whiteSpace=wrap;html=1;fontSize=8;" vertex="1" parent="adXk8Jc9nqMLCtVAsxUO-68">
          <mxGeometry x="29.95001220703125" width="102.04998779296875" height="20" as="geometry">
            <mxRectangle width="102.04998779296875" height="20" as="alternateBounds" />
          </mxGeometry>
        </mxCell>
        <mxCell id="adXk8Jc9nqMLCtVAsxUO-71" value="" style="shape=tableRow;horizontal=0;startSize=0;swimlaneHead=0;swimlaneBody=0;fillColor=none;collapsible=0;dropTarget=0;points=[[0,0.5],[1,0.5]];portConstraint=eastwest;top=0;left=0;right=0;bottom=0;" vertex="1" parent="adXk8Jc9nqMLCtVAsxUO-61">
          <mxGeometry y="97" width="132" height="20" as="geometry" />
        </mxCell>
        <mxCell id="adXk8Jc9nqMLCtVAsxUO-72" value="" style="shape=partialRectangle;connectable=0;fillColor=none;top=0;left=0;bottom=0;right=0;editable=1;overflow=hidden;whiteSpace=wrap;html=1;fontSize=8;" vertex="1" parent="adXk8Jc9nqMLCtVAsxUO-71">
          <mxGeometry width="29.95001220703125" height="20" as="geometry">
            <mxRectangle width="29.95001220703125" height="20" as="alternateBounds" />
          </mxGeometry>
        </mxCell>
        <mxCell id="adXk8Jc9nqMLCtVAsxUO-73" value="role" style="shape=partialRectangle;connectable=0;fillColor=none;top=0;left=0;bottom=0;right=0;align=left;spacingLeft=6;overflow=hidden;whiteSpace=wrap;html=1;fontSize=8;" vertex="1" parent="adXk8Jc9nqMLCtVAsxUO-71">
          <mxGeometry x="29.95001220703125" width="102.04998779296875" height="20" as="geometry">
            <mxRectangle width="102.04998779296875" height="20" as="alternateBounds" />
          </mxGeometry>
        </mxCell>
        <mxCell id="adXk8Jc9nqMLCtVAsxUO-78" value="" style="edgeStyle=entityRelationEdgeStyle;fontSize=12;html=1;endArrow=ERzeroToMany;startArrow=ERzeroToOne;rounded=0;exitX=1;exitY=0.5;exitDx=0;exitDy=0;entryX=0;entryY=0.5;entryDx=0;entryDy=0;" edge="1" parent="1" source="adXk8Jc9nqMLCtVAsxUO-8" target="adXk8Jc9nqMLCtVAsxUO-52">
          <mxGeometry width="100" height="100" relative="1" as="geometry">
            <mxPoint x="300" y="267" as="sourcePoint" />
            <mxPoint x="400" y="167" as="targetPoint" />
            <Array as="points">
              <mxPoint x="134" y="289" />
            </Array>
          </mxGeometry>
        </mxCell>
        <mxCell id="adXk8Jc9nqMLCtVAsxUO-80" value="" style="edgeStyle=entityRelationEdgeStyle;fontSize=12;html=1;endArrow=ERzeroToMany;endFill=1;startArrow=ERzeroToMany;rounded=0;exitX=1;exitY=0.5;exitDx=0;exitDy=0;entryX=0;entryY=0.5;entryDx=0;entryDy=0;" edge="1" parent="1" source="adXk8Jc9nqMLCtVAsxUO-68" target="adXk8Jc9nqMLCtVAsxUO-49">
          <mxGeometry width="100" height="100" relative="1" as="geometry">
            <mxPoint x="227" y="289" as="sourcePoint" />
            <mxPoint x="327" y="189" as="targetPoint" />
          </mxGeometry>
        </mxCell>
      </root>
    </mxGraphModel>
  </diagram>
</mxfile>
